<?xml version="1.0" encoding="UTF-8" standalone="no"?>
<!-- Created with Inkscape (http://www.inkscape.org/) -->

<svg
   xmlns:dc="http://purl.org/dc/elements/1.1/"
   xmlns:cc="http://creativecommons.org/ns#"
   xmlns:rdf="http://www.w3.org/1999/02/22-rdf-syntax-ns#"
   xmlns:svg="http://www.w3.org/2000/svg"
   xmlns="http://www.w3.org/2000/svg"
   xmlns:sodipodi="http://sodipodi.sourceforge.net/DTD/sodipodi-0.dtd"
   xmlns:inkscape="http://www.inkscape.org/namespaces/inkscape"
   width="744.09448819"
   height="1052.3622047"
   id="svg2"
   version="1.1"
   inkscape:version="0.48.4 r9939"
   sodipodi:docname="instructions.svg">
  <defs
     id="defs4" />
  <sodipodi:namedview
     id="base"
     pagecolor="#ffffff"
     bordercolor="#666666"
     borderopacity="1.0"
     inkscape:pageopacity="0.0"
     inkscape:pageshadow="2"
     inkscape:zoom="1.4142136"
     inkscape:cx="366.07523"
     inkscape:cy="802.33999"
     inkscape:document-units="px"
     inkscape:current-layer="layer1"
     showgrid="false"
     inkscape:window-width="1920"
     inkscape:window-height="1031"
     inkscape:window-x="0"
     inkscape:window-y="0"
     inkscape:window-maximized="1" />
  <metadata
     id="metadata7">
    <rdf:RDF>
      <cc:Work
         rdf:about="">
        <dc:format>image/svg+xml</dc:format>
        <dc:type
           rdf:resource="http://purl.org/dc/dcmitype/StillImage" />
        <dc:title></dc:title>
      </cc:Work>
    </rdf:RDF>
  </metadata>
  <g
     inkscape:label="Layer 1"
     inkscape:groupmode="layer"
     id="layer1">
    <g
       id="g3294"
       inkscape:export-filename="/home/maximida/git/Revenge_of_the_PNGs/assets/instructions.png"
       inkscape:export-xdpi="90"
       inkscape:export-ydpi="90">
      <g
         id="g3222">
        <g
           id="g3174">
          <g
             id="g3127">
            <path
               inkscape:connector-curvature="0"
               style="fill:#aca793;fill-opacity:1;stroke:none"
               d="m 273.06396,193.60195 c 1.11015,0 7.10111,5.79745 7.77505,6.56966 0.56431,0.64662 0.90539,1.49362 0.90539,2.42319 l 0,40.05826 c 0,2.03972 -1.64211,3.68182 -3.68182,3.68182 l -49.77826,0 c -2.03975,0 -3.68185,-1.6421 -3.68185,-3.68182 l 0,-40.05826 c 0,-0.9583 0.36248,-1.82885 0.95836,-2.48257 1.40742,-0.93864 5.53008,-5.94929 7.09247,-6.17765 3.81045,-0.55685 9.62291,-0.0818 16.04675,-0.0894 7.66978,-0.01 16.2816,-0.42457 24.36391,-0.24313 z"
               id="rect2985-6" />
            <rect
               style="fill:#e3e2db;fill-opacity:1;stroke:none"
               id="rect2987-2"
               width="44.329174"
               height="43.887356"
               x="231.00885"
               y="193.31657"
               ry="3.5345519" />
            <text
               xml:space="preserve"
               style="font-size:34.3105545px;font-style:normal;font-variant:normal;font-weight:normal;font-stretch:normal;line-height:125%;letter-spacing:0px;word-spacing:0px;fill:#000000;fill-opacity:1;stroke:none;font-family:Tibetan Machine Uni;-inkscape-font-specification:Tibetan Machine Uni"
               x="235.95119"
               y="227.65759"
               id="text3008-4"
               sodipodi:linespacing="125%"><tspan
                 sodipodi:role="line"
                 id="tspan3010-5"
                 x="235.95119"
                 y="227.65759">W</tspan></text>
            <path
               inkscape:connector-curvature="0"
               style="fill:#aca793;fill-opacity:1;stroke:none"
               d="m 273.06393,248.58669 c 1.11018,0 7.10111,5.79745 7.77508,6.56966 0.56431,0.64662 0.90539,1.49361 0.90539,2.42318 l 0,40.05827 c 0,2.03972 -1.64211,3.68182 -3.68182,3.68182 l -49.77826,0 c -2.03975,0 -3.68185,-1.6421 -3.68185,-3.68182 l 0,-40.05827 c 0,-0.9583 0.36248,-1.82885 0.95836,-2.48256 1.40742,-0.93864 5.53008,-5.9493 7.09247,-6.17765 3.81045,-0.55686 9.62291,-0.0818 16.04675,-0.0894 7.66978,-0.01 16.2816,-0.42457 24.36391,-0.24313 z"
               id="rect2985-6-1" />
            <rect
               style="fill:#e3e2db;fill-opacity:1;stroke:none"
               id="rect2987-2-2"
               width="44.329174"
               height="43.887356"
               x="231.00885"
               y="248.30128"
               ry="3.5345519" />
            <text
               xml:space="preserve"
               style="font-size:34.3105545px;font-style:normal;font-variant:normal;font-weight:normal;font-stretch:normal;line-height:125%;letter-spacing:0px;word-spacing:0px;fill:#000000;fill-opacity:1;stroke:none;font-family:Tibetan Machine Uni;-inkscape-font-specification:Tibetan Machine Uni"
               x="241.89856"
               y="282.6423"
               id="text3008-4-2"
               sodipodi:linespacing="125%"><tspan
                 sodipodi:role="line"
                 id="tspan3010-5-6"
                 x="241.89856"
                 y="282.6423">S</tspan></text>
            <path
               inkscape:connector-curvature="0"
               style="fill:#aca793;fill-opacity:1;stroke:none"
               d="m 330.20586,248.58669 c 1.11018,0 7.10111,5.79745 7.77508,6.56966 0.56428,0.64662 0.90535,1.49361 0.90535,2.42318 l 0,40.05827 c 0,2.03972 -1.64207,3.68182 -3.68179,3.68182 l -49.77825,0 c -2.03975,0 -3.68185,-1.6421 -3.68185,-3.68182 l 0,-40.05827 c 0,-0.9583 0.36245,-1.82885 0.95836,-2.48256 1.40739,-0.93864 5.53007,-5.9493 7.09247,-6.17765 3.81045,-0.55686 9.62287,-0.0818 16.04675,-0.0894 7.66978,-0.01 16.2816,-0.42457 24.36391,-0.24313 z"
               id="rect2985-6-9" />
            <rect
               style="fill:#e3e2db;fill-opacity:1;stroke:none"
               id="rect2987-2-0"
               width="44.329174"
               height="43.887356"
               x="288.15082"
               y="248.30128"
               ry="3.5345519" />
            <text
               xml:space="preserve"
               style="font-size:34.3105545px;font-style:normal;font-variant:normal;font-weight:normal;font-stretch:normal;line-height:125%;letter-spacing:0px;word-spacing:0px;fill:#000000;fill-opacity:1;stroke:none;font-family:Tibetan Machine Uni;-inkscape-font-specification:Tibetan Machine Uni"
               x="296.94638"
               y="282.6423"
               id="text3008-4-26"
               sodipodi:linespacing="125%"><tspan
                 sodipodi:role="line"
                 id="tspan3010-5-1"
                 x="296.94638"
                 y="282.6423">D</tspan></text>
            <path
               inkscape:connector-curvature="0"
               style="fill:#aca793;fill-opacity:1;stroke:none"
               d="m 215.92203,248.58669 c 1.11015,0 7.10111,5.79745 7.77505,6.56966 0.56431,0.64662 0.90539,1.49361 0.90539,2.42318 l 0,40.05827 c 0,2.03972 -1.6421,3.68182 -3.68182,3.68182 l -49.77826,0 c -2.03975,0 -3.68185,-1.6421 -3.68185,-3.68182 l 0,-40.05827 c 0,-0.9583 0.36248,-1.82885 0.95837,-2.48256 1.40741,-0.93864 5.53007,-5.9493 7.09247,-6.17765 3.81044,-0.55686 9.6229,-0.0818 16.04674,-0.0894 7.66978,-0.01 16.2816,-0.42457 24.36391,-0.24313 z"
               id="rect2985-6-6" />
            <rect
               style="fill:#e3e2db;fill-opacity:1;stroke:none"
               id="rect2987-2-9"
               width="44.329174"
               height="43.887356"
               x="173.86688"
               y="248.30128"
               ry="3.5345519" />
            <text
               xml:space="preserve"
               style="font-size:34.3105545px;font-style:normal;font-variant:normal;font-weight:normal;font-stretch:normal;line-height:125%;letter-spacing:0px;word-spacing:0px;fill:#000000;fill-opacity:1;stroke:none;font-family:Tibetan Machine Uni;-inkscape-font-specification:Tibetan Machine Uni"
               x="183.34926"
               y="282.6423"
               id="text3008-4-7"
               sodipodi:linespacing="125%"><tspan
                 sodipodi:role="line"
                 id="tspan3010-5-9"
                 x="183.34926"
                 y="282.6423">A</tspan></text>
          </g>
          <g
             inkscape:export-ydpi="90"
             inkscape:export-xdpi="90"
             inkscape:export-filename="/home/maximida/git/Revenge_of_the_PNGs/assets/instructions.png"
             transform="matrix(3.2989152,0,0,3.2989152,-1430.7338,-825.4186)"
             id="g3417">
            <path
               inkscape:connector-curvature="0"
               style="fill:#aca793;fill-opacity:1;stroke:none"
               d="m 581.05875,308.89565 c 0.33652,0 2.15256,1.75738 2.35685,1.99146 0.17106,0.19601 0.27445,0.45276 0.27445,0.73454 l 0,12.14286 c 0,0.6183 -0.49777,1.11607 -1.11607,1.11607 l -15.08928,0 c -0.61831,0 -1.11608,-0.49777 -1.11608,-1.11607 l 0,-12.14286 c 0,-0.29049 0.10988,-0.55438 0.29051,-0.75254 0.42663,-0.28453 1.67633,-1.80341 2.14994,-1.87263 1.15506,-0.1688 2.91699,-0.0248 4.86425,-0.0271 2.32494,-0.003 4.93544,-0.1287 7.38543,-0.0737 z"
               id="rect2985-6-8" />
            <rect
               style="fill:#e3e2db;fill-opacity:1;stroke:none"
               id="rect2987-2-7"
               width="13.4375"
               height="13.303572"
               x="568.31061"
               y="308.80914"
               ry="1.0714285" />
            <text
               xml:space="preserve"
               style="font-size:10.40055656px;font-style:normal;font-variant:normal;font-weight:normal;font-stretch:normal;line-height:125%;letter-spacing:0px;word-spacing:0px;fill:#000000;fill-opacity:1;stroke:none;font-family:Tibetan Machine Uni;-inkscape-font-specification:Tibetan Machine Uni"
               x="570.67719"
               y="319.21893"
               id="text3008-4-9"
               sodipodi:linespacing="125%"><tspan
                 sodipodi:role="line"
                 id="tspan3010-5-4"
                 x="570.67719"
                 y="319.21893">↑</tspan></text>
            <path
               inkscape:connector-curvature="0"
               style="fill:#aca793;fill-opacity:1;stroke:none"
               d="m 581.05875,325.56317 c 0.33652,0 2.15256,1.75738 2.35685,1.99146 0.17106,0.19601 0.27445,0.45276 0.27445,0.73454 l 0,12.14286 c 0,0.6183 -0.49777,1.11607 -1.11607,1.11607 l -15.08928,0 c -0.61831,0 -1.11608,-0.49777 -1.11608,-1.11607 l 0,-12.14286 c 0,-0.29049 0.10988,-0.55438 0.29051,-0.75254 0.42663,-0.28453 1.67633,-1.80341 2.14994,-1.87263 1.15506,-0.1688 2.91699,-0.0248 4.86425,-0.0271 2.32494,-0.003 4.93544,-0.1287 7.38543,-0.0737 z"
               id="rect2985-6-1-0" />
            <rect
               style="fill:#e3e2db;fill-opacity:1;stroke:none"
               id="rect2987-2-2-7"
               width="13.4375"
               height="13.303572"
               x="568.31061"
               y="325.47665"
               ry="1.0714285" />
            <text
               xml:space="preserve"
               style="font-size:10.40055656px;font-style:normal;font-variant:normal;font-weight:normal;font-stretch:normal;line-height:125%;letter-spacing:0px;word-spacing:0px;fill:#000000;fill-opacity:1;stroke:none;font-family:Tibetan Machine Uni;-inkscape-font-specification:Tibetan Machine Uni"
               x="570.67719"
               y="335.88644"
               id="text3008-4-2-7"
               sodipodi:linespacing="125%"><tspan
                 sodipodi:role="line"
                 id="tspan3010-5-6-5"
                 x="570.67719"
                 y="335.88644">↓</tspan></text>
            <path
               inkscape:connector-curvature="0"
               style="fill:#aca793;fill-opacity:1;stroke:none"
               d="m 598.38018,325.56317 c 0.33652,0 2.15256,1.75738 2.35685,1.99146 0.17106,0.19601 0.27445,0.45276 0.27445,0.73454 l 0,12.14286 c 0,0.6183 -0.49777,1.11607 -1.11607,1.11607 l -15.08928,0 c -0.61831,0 -1.11608,-0.49777 -1.11608,-1.11607 l 0,-12.14286 c 0,-0.29049 0.10988,-0.55438 0.29051,-0.75254 0.42663,-0.28453 1.67633,-1.80341 2.14994,-1.87263 1.15506,-0.1688 2.91699,-0.0248 4.86425,-0.0271 2.32494,-0.003 4.93544,-0.1287 7.38543,-0.0737 z"
               id="rect2985-6-9-3" />
            <rect
               style="fill:#e3e2db;fill-opacity:1;stroke:none"
               id="rect2987-2-0-4"
               width="13.4375"
               height="13.303572"
               x="585.63202"
               y="325.47665"
               ry="1.0714285" />
            <text
               xml:space="preserve"
               style="font-size:10.40055656px;font-style:normal;font-variant:normal;font-weight:normal;font-stretch:normal;line-height:125%;letter-spacing:0px;word-spacing:0px;fill:#000000;fill-opacity:1;stroke:none;font-family:Tibetan Machine Uni;-inkscape-font-specification:Tibetan Machine Uni"
               x="587.66846"
               y="335.88644"
               id="text3008-4-26-1"
               sodipodi:linespacing="125%"><tspan
                 sodipodi:role="line"
                 id="tspan3010-5-1-6"
                 x="587.66846"
                 y="335.88644">→</tspan></text>
            <path
               inkscape:connector-curvature="0"
               style="fill:#aca793;fill-opacity:1;stroke:none"
               d="m 563.73732,325.56317 c 0.33652,0 2.15256,1.75738 2.35685,1.99146 0.17106,0.19601 0.27445,0.45276 0.27445,0.73454 l 0,12.14286 c 0,0.6183 -0.49777,1.11607 -1.11607,1.11607 l -15.08928,0 c -0.61831,0 -1.11608,-0.49777 -1.11608,-1.11607 l 0,-12.14286 c 0,-0.29049 0.10988,-0.55438 0.29051,-0.75254 0.42663,-0.28453 1.67633,-1.80341 2.14994,-1.87263 1.15506,-0.1688 2.91699,-0.0248 4.86425,-0.0271 2.32494,-0.003 4.93544,-0.1287 7.38543,-0.0737 z"
               id="rect2985-6-6-3" />
            <rect
               style="fill:#e3e2db;fill-opacity:1;stroke:none"
               id="rect2987-2-9-0"
               width="13.4375"
               height="13.303572"
               x="550.98914"
               y="325.47665"
               ry="1.0714285" />
            <text
               xml:space="preserve"
               style="font-size:10.40055656px;font-style:normal;font-variant:normal;font-weight:normal;font-stretch:normal;line-height:125%;letter-spacing:0px;word-spacing:0px;fill:#000000;fill-opacity:1;stroke:none;font-family:Tibetan Machine Uni;-inkscape-font-specification:Tibetan Machine Uni"
               x="553.3938"
               y="335.88644"
               id="text3008-4-7-3"
               sodipodi:linespacing="125%"><tspan
                 sodipodi:role="line"
                 id="tspan3010-5-9-0"
                 x="553.3938"
                 y="335.88644">←</tspan></text>
          </g>
        </g>
        <g
           id="g3216"
           transform="translate(8.4468019,-12.020815)">
          <text
             inkscape:export-ydpi="90"
             inkscape:export-xdpi="90"
             inkscape:export-filename="/home/maximida/git/Revenge_of_the_PNGs/assets/instructions.png"
             sodipodi:linespacing="125%"
             id="text3374"
             y="345.59756"
             x="200.30002"
             style="font-size:32px;font-style:normal;font-weight:normal;line-height:125%;letter-spacing:0px;word-spacing:0px;fill:#000000;fill-opacity:1;stroke:none;font-family:Sans"
             xml:space="preserve"><tspan
               y="345.59756"
               x="200.30002"
               id="tspan3376"
               sodipodi:role="line">shoot</tspan></text>
          <text
             inkscape:export-ydpi="90"
             inkscape:export-xdpi="90"
             inkscape:export-filename="/home/maximida/git/Revenge_of_the_PNGs/assets/instructions.png"
             sodipodi:linespacing="125%"
             id="text3374-7"
             y="345.59756"
             x="412.81277"
             style="font-size:32px;font-style:normal;font-weight:normal;line-height:125%;letter-spacing:0px;word-spacing:0px;fill:#000000;fill-opacity:1;stroke:none;font-family:Sans"
             xml:space="preserve"><tspan
               y="345.59756"
               x="412.81277"
               id="tspan3376-7"
               sodipodi:role="line">move</tspan></text>
        </g>
      </g>
      <g
         transform="translate(-1.6267519e-6,-20.506097)"
         id="g3285">
        <g
           id="g3279"
           transform="translate(0,-4.2426407)">
          <path
             id="rect2985-6-6-1"
             d="m 215.92203,373.47886 c 1.11015,0 7.10111,5.79745 7.77505,6.56966 0.56431,0.64662 0.90539,1.49361 0.90539,2.42318 l 0,40.05827 c 0,2.03972 -1.6421,3.68182 -3.68182,3.68182 l -49.77826,0 c -2.03975,0 -3.68185,-1.6421 -3.68185,-3.68182 l 0,-40.05827 c 0,-0.9583 0.36248,-1.82885 0.95837,-2.48256 1.40741,-0.93864 5.53007,-5.9493 7.09247,-6.17765 3.81044,-0.55686 9.6229,-0.0818 16.04674,-0.0894 7.66978,-0.01 16.2816,-0.42457 24.36391,-0.24313 z"
             style="fill:#aca793;fill-opacity:1;stroke:none"
             inkscape:connector-curvature="0" />
          <path
             id="rect2985-6-6-1-4"
             d="m 543.27167,373.47886 c 1.11015,0 7.10111,5.79745 7.77505,6.56966 0.56431,0.64662 0.90539,1.49361 0.90539,2.42318 l 0,40.05827 c 0,2.03972 -1.6421,3.68182 -3.68182,3.68182 l -49.77826,0 c -2.03975,0 -3.68185,-1.6421 -3.68185,-3.68182 l 0,-40.05827 c 0,-0.9583 0.36248,-1.82885 0.95837,-2.48256 1.40741,-0.93864 5.53007,-5.9493 7.09247,-6.17765 3.81044,-0.55686 9.6229,-0.0818 16.04674,-0.0894 7.66978,-0.01 16.2816,-0.42457 24.36391,-0.24313 z"
             style="fill:#aca793;fill-opacity:1;stroke:none"
             inkscape:connector-curvature="0" />
          <rect
             ry="0"
             rx="3.5345519"
             y="401.1095"
             x="197.28278"
             height="25.102291"
             width="308.29855"
             id="rect3151"
             style="fill:#aca793;fill-opacity:1;stroke:none" />
          <rect
             rx="3.5345519"
             ry="3.5345519"
             y="373.19345"
             x="173.86688"
             height="43.887356"
             width="371.36606"
             id="rect2987-2-9-5"
             style="fill:#e3e2db;fill-opacity:1;stroke:none" />
        </g>
        <text
           xml:space="preserve"
           style="font-size:32px;font-style:normal;font-weight:normal;line-height:125%;letter-spacing:0px;word-spacing:0px;fill:#000000;fill-opacity:1;stroke:none;font-family:Sans"
           x="169.36258"
           y="460.28369"
           id="text3374-71"
           sodipodi:linespacing="125%"
           inkscape:export-filename="/home/maximida/git/Revenge_of_the_PNGs/assets/instructions.png"
           inkscape:export-xdpi="90"
           inkscape:export-ydpi="90"><tspan
             sodipodi:role="line"
             id="tspan3376-3"
             x="169.36258"
             y="460.28369">toggle hitboxes (debug)</tspan></text>
      </g>
    </g>
  </g>
</svg>
